<svg width="25" height="25" viewBox="0 0 25 25" fill="none" xmlns="http://www.w3.org/2000/svg">
<path d="M14.5834 20.8334C15.1359 20.8334 15.6658 20.6139 16.0565 20.2232C16.4472 19.8325 16.6667 19.3026 16.6667 18.7501C16.6667 18.1975 16.4472 17.6676 16.0565 17.2769C15.6658 16.8862 15.1359 16.6667 14.5834 16.6667C14.0308 16.6667 13.5009 16.8862 13.1102 17.2769C12.7195 17.6676 12.5 18.1975 12.5 18.7501C12.5 19.3026 12.7195 19.8325 13.1102 20.2232C13.5009 20.6139 14.0308 20.8334 14.5834 20.8334ZM7.29168 20.8334C7.84422 20.8334 8.37412 20.6139 8.76482 20.2232C9.15552 19.8325 9.37502 19.3026 9.37502 18.7501C9.37502 18.1975 9.15552 17.6676 8.76482 17.2769C8.37412 16.8862 7.84422 16.6667 7.29168 16.6667C6.73915 16.6667 6.20925 16.8862 5.81854 17.2769C5.42784 17.6676 5.20835 18.1975 5.20835 18.7501C5.20835 19.3026 5.42784 19.8325 5.81854 20.2232C6.20925 20.6139 6.73915 20.8334 7.29168 20.8334ZM20.8729 6.16987C21.133 6.16149 21.3796 6.05229 21.5605 5.86538C21.7415 5.67846 21.8427 5.42849 21.8427 5.16831C21.8427 4.90814 21.7415 4.65816 21.5605 4.47125C21.3796 4.28433 21.133 4.17514 20.8729 4.16675H19.674C18.7344 4.16675 17.9219 4.81883 17.7177 5.7355L16.4125 11.6126C16.2083 12.5292 15.3959 13.1813 14.4563 13.1813H6.63127L5.12918 7.17091H14.8636C15.1212 7.15916 15.3643 7.04856 15.5424 6.86211C15.7206 6.67567 15.82 6.42773 15.82 6.16987C15.82 5.91201 15.7206 5.66408 15.5424 5.47763C15.3643 5.29119 15.1212 5.18059 14.8636 5.16883H5.12918C4.82467 5.16874 4.52414 5.23808 4.25045 5.37157C3.97676 5.50507 3.7371 5.69921 3.5497 5.93923C3.3623 6.17925 3.23209 6.45884 3.16897 6.75674C3.10585 7.05464 3.11148 7.36302 3.18543 7.65841L4.68752 13.6667C4.7958 14.1003 5.04594 14.4852 5.39815 14.7602C5.75036 15.0352 6.18441 15.1845 6.63127 15.1845H14.4563C15.3679 15.1846 16.2524 14.8738 16.9635 14.3033C17.6747 13.7329 18.17 12.9369 18.3677 12.047L19.674 6.16987H20.8729Z" fill="black"/>
</svg>
